<svg width="15" height="17" viewBox="0 0 15 17" fill="none" xmlns="http://www.w3.org/2000/svg">
<path fill-rule="evenodd" clip-rule="evenodd" d="M0.449946 7.08317C0.818696 7.52484 1.47495 7.58525 1.91661 7.2165L6.45828 3.43213V15.7915C6.45828 16.3665 6.92495 16.8332 7.49995 16.8332C8.07495 16.8332 8.54161 16.3665 8.54161 15.7915V3.43213L13.0833 7.2165C13.526 7.58525 14.1822 7.52484 14.5499 7.08317C14.9187 6.6415 14.8593 5.98421 14.4166 5.6165L8.16661 0.408171C8.11766 0.366504 8.05932 0.346712 8.00516 0.315462C7.96245 0.290462 7.92495 0.261296 7.87807 0.242546C7.7562 0.194629 7.62911 0.166504 7.49995 0.166504C7.37078 0.166504 7.2437 0.194629 7.12182 0.242546C7.07495 0.261296 7.03745 0.290462 6.99474 0.315462C6.94057 0.346712 6.88224 0.366504 6.83328 0.408171L0.583279 5.6165C0.141613 5.98421 0.081196 6.6415 0.449946 7.08317Z" fill="white"/>
</svg>
